<svg xmlns="http://www.w3.org/2000/svg" xmlns:xlink="http://www.w3.org/1999/xlink" viewBox="-750 -2250 3500 3500" id="svg00001" >
   <g id="g00001" transform="scale(500 500)" >
         <line x1="1" y1="0" x2="3" y2="0" stroke-width="0.05" stroke="yellow" fill="none" id="line00001" />
      <ellipse cx="4" cy="0" rx="1" ry="2" stroke-width="0.02" stroke="black" fill="#4daf4a" id="ellipse00001" />
      <circle cx="4.73116" cy="-1.36441" r="0.1" stroke-width="0" fill="black" id="circle00001" />
      <circle cx="3.26884" cy="1.36441" r="0.1" stroke-width="0" fill="black" id="circle00002" />
      <polygon points="3.26884,1.36441 3.29063,1.40967 3.31312,1.45354 3.33628,1.49597 3.36011,1.53693 3.38456,1.57637 3.40962,1.61425 3.43526,1.65054 3.46147,1.68521 3.4882,1.71821 3.51544,1.74951 3.54315,1.77909 3.57132,1.80691 3.59991,1.83295 3.62889,1.85718 3.65824,1.87958 3.68793,1.90012 3.71793,1.91879 3.7482,1.93556 3.77873,1.95042 3.80947,1.96336 3.8404,1.97436 3.87148,1.98341 3.9027,1.99051 3.93401,1.99564 3.96538,1.9988 3.99679,1.99999 4.0282,1.9992 4.05959,1.99645 4.09091,1.99172 4.12215,1.98502 4.15326,1.97637 4.18423,1.96577 4.21501,1.95322 4.24558,1.93875 4.27591,1.92237 4.30596,1.90409 4.33572,1.88393 4.36514,1.86191 4.3942,1.83805 4.42287,1.81238 4.45113,1.78492 4.47894,1.7557 4.50628,1.72474 4.53311,1.69209 4.55943,1.65776 4.58519,1.6218 4.61037,1.58424 4.63495,1.54511 4.6589,1.50446 4.6822,1.46232 4.70483,1.41874 4.72677,1.37377 4.74798,1.32743 4.76846,1.27979 4.78818,1.23088 4.80713,1.18076 4.82527,1.12947 4.8426,1.07707 4.8591,1.0236 4.87476,0.969127 4.88954,0.913695 4.90346,0.857362 4.91648,0.800182 4.92859,0.742213 4.93979,0.683511 4.95006,0.624135 4.95939,0.564143 4.96778,0.503594 4.97521,0.442548 4.98168,0.381065 4.98718,0.319206 4.99171,0.257033 4.99525,0.194605 4.99782,0.131986 4.9994,0.0692359 4.99999,0.00641786 4.9996,-0.0564065 4.99822,-0.119175 4.99586,-0.181826 4.99251,-0.244298 4.98819,-0.306529 4.98288,-0.368457 4.97661,-0.430021 4.96938,-0.491161 4.96118,-0.551817 4.95204,-0.611927 4.94196,-0.671434 4.93095,-0.730278 4.91902,-0.788402 4.90619,-0.845747 4.89246,-0.902258 4.87785,-0.957879 4.86237,-1.01255 4.84604,-1.06623 4.82888,-1.11885 4.8109,-1.17037 4.79212,-1.22074 4.77255,-1.2699 4.75223,-1.3178 4.73116,-1.36441 7.06351,3.63504 5.60118,6.36386 " stroke-width="0" fill="black" fill-opacity="0.5" id="polygon00001" />
      <ellipse cx="0" cy="0" rx="1" ry="2" stroke-width="0.02" stroke="black" fill="#4daf4a" id="ellipse00002" />
      <circle cx="0.731162" cy="-1.36441" r="0.1" stroke-width="0" fill="black" id="circle00003" />
      <circle cx="-0.731162" cy="1.36441" r="0.1" stroke-width="0" fill="black" id="circle00004" />
      <polygon points="-0.731162,1.36441 -0.709373,1.40967 -0.686883,1.45354 -0.663716,1.49597 -0.639894,1.53693 -0.61544,1.57637 -0.590379,1.61425 -0.564735,1.65054 -0.538534,1.68521 -0.511802,1.71821 -0.484564,1.74951 -0.456848,1.77909 -0.428681,1.80691 -0.400092,1.83295 -0.371107,1.85718 -0.341756,1.87958 -0.312068,1.90012 -0.282072,1.91879 -0.251797,1.93556 -0.221274,1.95042 -0.190533,1.96336 -0.159604,1.97436 -0.128517,1.98341 -0.0973031,1.99051 -0.0659934,1.99564 -0.0346185,1.9988 -0.00320951,1.99999 0.0282027,1.9992 0.059587,1.99645 0.0909126,1.99172 0.122148,1.98502 0.153264,1.97637 0.184228,1.96577 0.21501,1.95322 0.24558,1.93875 0.275908,1.92237 0.305963,1.90409 0.335717,1.88393 0.365139,1.86191 0.3942,1.83805 0.422873,1.81238 0.451129,1.78492 0.478939,1.7557 0.506276,1.72474 0.533114,1.69209 0.559426,1.65776 0.585186,1.6218 0.610368,1.58424 0.634948,1.54511 0.658901,1.50446 0.682204,1.46232 0.704834,1.41874 0.726768,1.37377 0.747985,1.32743 0.768464,1.27979 0.788184,1.23088 0.807127,1.18076 0.825273,1.12947 0.842604,1.07707 0.859104,1.0236 0.874756,0.969127 0.889545,0.913695 0.903456,0.857362 0.916475,0.800182 0.92859,0.742213 0.939789,0.683511 0.95006,0.624135 0.959393,0.564143 0.96778,0.503594 0.975212,0.442548 0.981681,0.381065 0.987181,0.319206 0.991707,0.257033 0.995255,0.194605 0.99782,0.131986 0.999401,0.0692359 0.999995,0.00641786 0.999602,-0.0564065 0.998223,-0.119175 0.995859,-0.181826 0.992512,-0.244298 0.988185,-0.306529 0.982883,-0.368457 0.976612,-0.430021 0.969376,-0.491161 0.961184,-0.551817 0.952043,-0.611927 0.941963,-0.671434 0.930953,-0.730278 0.919024,-0.788402 0.906189,-0.845747 0.892459,-0.902258 0.877848,-0.957879 0.862371,-1.01255 0.846043,-1.06623 0.82888,-1.11885 0.810899,-1.17037 0.792118,-1.22074 0.772555,-1.2699 0.752229,-1.3178 0.731162,-1.36441 3.06351,3.63504 1.60118,6.36386 " stroke-width="0" fill="black" fill-opacity="0.5" id="polygon00002" />
      <line x1="0.731162" y1="-1.36441" x2="43.0088" y2="89.259" stroke-width="0.04" stroke="black" fill="none" id="line00002" />
      <line x1="4.73116" y1="-1.36441" x2="-37.5465" y2="-91.9878" stroke-width="0.01" stroke="yellow" fill="none" id="line00003" />
      <line x1="3.26884" y1="1.36441" x2="-39.0088" y2="-89.259" stroke-width="0.04" stroke="black" fill="none" id="line00004" />
      <circle cx="1.36769" cy="0" r="0.1" stroke-width="0" fill="black" id="circle00005" />
      <circle cx="2.63231" cy="0" r="0.1" stroke-width="0" fill="black" id="circle00006" />
      <line x1="0.731162" y1="-1.36441" x2="-41.5465" y2="-91.9878" stroke-width="0.01" stroke="yellow" fill="none" id="line00005" />
      <line x1="4.73116" y1="-1.36441" x2="-37.5465" y2="-91.9878" stroke-width="0.01" stroke="#4daf4a" fill="none" id="line00006" />
      <line x1="1.32589" y1="-2.80036" x2="3.57234" y2="-3.84837" stroke-width="0.05" stroke="#4daf4a" fill="none" id="line00007" />
      <line x1="0.287302" y1="-2.31583" x2="1.32589" y2="-2.80036" stroke-width="0.05" stroke="yellow" fill="none" id="line00008" />

   </g>

</svg>
