<svg xmlns="http://www.w3.org/2000/svg" xmlns:xlink="http://www.w3.org/1999/xlink" viewBox="-750 -1750 4875 2750" id="svg00001" >
   <g id="g00001" transform="scale(500 500)" >
         <polygon points="6.88909,0 8.83363,-1.94454 22.5745,3.05399 20.6299,4.99854 " stroke-width="0" fill="black" fill-opacity="0.25" id="polygon00001" />
      <line x1="6.88909" y1="0" x2="8.83363" y2="-1.94454" stroke-width="0.1" stroke="#4daf4a" fill="none" id="line00001" />
      <ellipse cx="5.88909" cy="0" rx="1" ry="1.5" stroke-width="0.02" stroke="black" fill="#377eb8" id="ellipse00001" />
      <polygon points="5.6534,1.45774 5.68405,1.46813 5.71489,1.47707 5.74591,1.48454 5.77706,1.49056 5.80833,1.4951 5.83968,1.49817 5.87108,1.49976 5.90249,1.49987 5.93389,1.49849 5.96525,1.49564 5.99653,1.49132 6.02771,1.48552 6.05875,1.47825 6.08962,1.46953 6.12029,1.45936 6.15074,1.44774 6.18093,1.4347 6.21083,1.42024 6.24041,1.40438 6.26964,1.38714 6.2985,1.36852 6.32696,1.34856 6.35498,1.32726 6.38254,1.30465 6.40962,1.28076 6.43618,1.2556 6.46221,1.22921 6.48766,1.2016 6.51253,1.1728 6.53678,1.14285 6.5604,1.11177 6.58334,1.07959 6.60561,1.04635 6.62717,1.01207 6.648,0.976795 6.66808,0.940556 6.68739,0.903389 6.70591,0.865331 6.72363,0.826418 6.74052,0.78669 6.75658,0.746185 6.77177,0.704944 6.7861,0.663008 6.79954,0.620417 6.81208,0.577214 6.82372,0.533441 6.83442,0.489141 6.8442,0.444359 6.85303,0.399139 6.86092,0.353524 6.86784,0.307561 6.8738,0.261294 6.87878,0.214769 6.88279,0.168033 6.88582,0.12113 6.88787,0.0741082 6.88893,0.027013 6.889,-0.0201088 6.88808,-0.0672108 6.88618,-0.114246 6.8833,-0.161169 6.87943,-0.207933 6.87459,-0.254492 6.86877,-0.300799 6.86199,-0.34681 6.85425,-0.392479 6.84555,-0.43776 6.83592,-0.482609 6.82534,-0.526981 6.81385,-0.570834 6.80143,-0.614123 6.78813,-0.656807 6.77393,-0.698842 6.75886,-0.740187 6.74293,-0.780802 6.72616,-0.820647 6.70856,-0.859681 6.69015,-0.897867 6.67095,-0.935167 6.65099,-0.971545 6.63027,-1.00696 6.60881,-1.04139 6.58665,-1.07478 6.5638,-1.10712 6.54028,-1.13836 6.51612,-1.16848 6.49135,-1.19745 6.46597,-1.22524 6.44003,-1.25181 6.41355,-1.27715 6.38654,-1.30123 6.35905,-1.32403 6.33109,-1.34552 6.3027,-1.36568 6.2739,-1.38449 6.24471,-1.40194 6.21518,-1.41801 6.18533,-1.43267 6.15518,-1.44592 6.12477,-1.45774 19.8656,3.54079 19.3942,6.45628 " stroke-width="0" fill="black" fill-opacity="0.5" id="polygon00002" />
      <polygon points="4.88909,-1.31134e-07 2.94454,-1.94454 16.6854,3.05399 18.6299,4.99854 " stroke-width="0" fill="black" fill-opacity="0.25" id="polygon00003" />
      <line x1="4.88909" y1="-1.31134e-07" x2="2.94454" y2="-1.94454" stroke-width="0.1" stroke="#e41a1c" fill="none" id="line00002" />
      <polygon points="1,0 2.94454,-1.94454 16.6854,3.05399 14.7408,4.99854 " stroke-width="0" fill="black" fill-opacity="0.25" id="polygon00004" />
      <line x1="1" y1="0" x2="2.94454" y2="-1.94454" stroke-width="0.1" stroke="#4daf4a" fill="none" id="line00003" />
      <ellipse cx="0" cy="0" rx="1" ry="1.5" stroke-width="0.02" stroke="black" fill="#377eb8" id="ellipse00002" />
      <polygon points="-0.235684,1.45774 -0.205041,1.46813 -0.174197,1.47707 -0.14318,1.48454 -0.112022,1.49056 -0.0807542,1.4951 -0.0494061,1.49817 -0.0180093,1.49976 0.0134052,1.49987 0.0448066,1.49849 0.0761637,1.49564 0.107446,1.49132 0.138622,1.48552 0.169661,1.47825 0.200532,1.46953 0.231206,1.45936 0.261652,1.44774 0.291839,1.4347 0.321738,1.42024 0.35132,1.40438 0.380555,1.38714 0.409415,1.36852 0.437871,1.34856 0.465894,1.32726 0.493458,1.30465 0.520534,1.28076 0.547097,1.2556 0.57312,1.22921 0.598578,1.2016 0.623444,1.1728 0.647696,1.14285 0.671308,1.11177 0.694258,1.07959 0.716522,1.04635 0.73808,1.01207 0.758909,0.976795 0.778989,0.940556 0.7983,0.903389 0.816824,0.865331 0.834541,0.826418 0.851435,0.78669 0.867489,0.746185 0.882686,0.704944 0.897013,0.663008 0.910454,0.620417 0.922996,0.577214 0.934628,0.533441 0.945337,0.489141 0.955114,0.444359 0.963947,0.399139 0.97183,0.353524 0.978753,0.307561 0.984711,0.261294 0.989697,0.214769 0.993706,0.168033 0.996734,0.12113 0.998779,0.0741082 0.999838,0.027013 0.99991,-0.0201088 0.998996,-0.0672108 0.997095,-0.114246 0.994211,-0.161169 0.990345,-0.207933 0.985502,-0.254492 0.979687,-0.300799 0.972905,-0.34681 0.965162,-0.392479 0.956467,-0.43776 0.946828,-0.482609 0.936255,-0.526981 0.924758,-0.570834 0.912348,-0.614123 0.899038,-0.656807 0.88484,-0.698842 0.86977,-0.740187 0.85384,-0.780802 0.837069,-0.820647 0.819471,-0.859681 0.801064,-0.897867 0.781867,-0.935167 0.761899,-0.971545 0.741178,-1.00696 0.719726,-1.04139 0.697564,-1.07478 0.674713,-1.10712 0.651196,-1.13836 0.627037,-1.16848 0.602259,-1.19745 0.576887,-1.22524 0.550945,-1.25181 0.524459,-1.27715 0.497456,-1.30123 0.469962,-1.32403 0.442005,-1.34552 0.413611,-1.36568 0.384808,-1.38449 0.355627,-1.40194 0.326094,-1.41801 0.296239,-1.43267 0.266092,-1.44592 0.235683,-1.45774 13.9765,3.54079 13.5051,6.45628 " stroke-width="0" fill="black" fill-opacity="0.5" id="polygon00005" />
      <line x1="-1" y1="-1.31134e-07" x2="-2.94454" y2="-1.94454" stroke-width="0.1" stroke="#e41a1c" fill="none" id="line00004" />
      <circle cx="-0.235683" cy="1.45774" r="0.1" stroke-width="0" fill="black" id="circle00001" />
      <circle cx="0.235683" cy="-1.45774" r="0.1" stroke-width="0" fill="black" id="circle00002" />
      <circle cx="5.6534" cy="1.45774" r="0.1" stroke-width="0" fill="black" id="circle00003" />
      <circle cx="6.12477" cy="-1.45774" r="0.1" stroke-width="0" fill="black" id="circle00004" />
      <circle cx="1" cy="0" r="0.1" stroke-width="0" fill="black" id="circle00005" />
      <circle cx="4.88909" cy="-1.31134e-07" r="0.1" stroke-width="0" fill="black" id="circle00006" />
      <circle cx="2.94454" cy="-1.94454" r="0.1" stroke-width="0" fill="black" id="circle00007" />
      <line x1="0.235683" y1="-1.45774" x2="94.2109" y2="32.7279" stroke-width="0.04" stroke="black" fill="none" id="line00005" />
      <circle cx="4.90194" cy="0.239711" r="0.1" stroke-width="0" fill="black" id="circle00008" />
      <circle cx="1.86503" cy="-0.865032" r="0.1" stroke-width="0" fill="black" id="circle00009" />
      <line x1="2.94454" y1="-1.94454" x2="96.9198" y2="32.2411" stroke-width="0.04" stroke="black" fill="none" id="line00006" />
      <circle cx="5.22118" cy="-1.11637" r="0.1" stroke-width="0" fill="black" id="circle00010" />

   </g>

</svg>
